<?xml version="1.0" encoding="UTF-8" standalone="no"?>
<!-- Created with Inkscape (http://www.inkscape.org/) -->
<svg
   xmlns:svg="http://www.w3.org/2000/svg"
   xmlns="http://www.w3.org/2000/svg"
   version="1.0"
   width="550"
   height="400"
   id="svg2"
   fill="green">
  <defs
     id="defs4" />
  <g
     transform="translate(-106.52458,-659.81082)"
     id="layer1">
    <path
       d="M 114.03125,667.32517 C 113.85605,667.51287 117.15302,672.86182 121.34382,679.2073 C 147.58669,718.94288 195.87784,746.28674 257.50141,756.30002 C 275.54025,759.23118 297.45332,761.69512 299.25182,761.00271 C 301.87567,759.99259 304.11947,763.21412 306.59564,771.44267 C 308.97053,779.33464 308.98198,779.32831 312.68945,777.43076 C 314.70614,776.3986 316.83415,774.76763 317.42435,773.79402 C 317.62941,773.46053 317.68029,773.36436 317.752,772.97888 C 317.76022,772.36936 317.72074,771.75196 317.72075,771.09781 C 317.72075,770.72213 317.65825,769.81081 317.65825,769.15403 C 317.65825,768.85164 317.63489,768.31002 317.59575,767.83728 C 317.57618,767.60091 317.5271,767.39086 317.502,767.21025 C 317.4769,767.02965 317.44378,766.87649 317.4395,766.86539 C 316.91081,765.21707 315.27737,761.28539 313.37696,757.1465 C 311.30576,752.63567 309.69023,747.9396 309.12692,744.95087 C 309.10753,744.86946 309.08435,744.75634 309.06442,744.66871 C 309.06248,744.65745 309.06633,744.64856 309.06442,744.63735 C 309.00447,744.37246 308.93932,744.11218 308.87692,743.79087 C 308.6656,742.70275 308.3486,740.8922 308.09566,739.27629 C 308.03464,738.88644 307.96056,738.50106 307.90816,738.14765 C 307.82745,737.60337 307.76812,737.11735 307.72066,736.73684 C 307.61798,735.91397 307.62823,735.60128 307.6269,735.26333 C 307.6247,734.70498 307.59023,734.39671 307.6269,733.69577 C 307.66359,732.99486 307.63458,732.21227 307.72066,731.37578 C 307.72067,728.53065 307.91091,726.84137 308.03316,726.73579 C 308.08873,726.6878 308.15324,726.96701 308.22066,727.61363 C 308.42687,729.60108 308.38417,731.61623 308.37691,733.60171 C 308.37909,733.62256 308.37909,733.64357 308.37691,733.66442 C 308.32071,734.64189 308.37103,735.09791 308.34566,735.38874 C 308.3203,735.6796 308.37029,736.11508 308.37691,736.70549 C 308.3809,737.08121 308.42162,737.5122 308.50191,738.05359 C 308.55403,738.40511 308.62861,738.79379 308.68942,739.18224 C 308.84801,740.19541 308.99942,741.06871 309.15817,742.00385 C 309.24666,742.45804 309.31922,742.78734 309.43942,743.41466 C 309.91519,745.89767 312.16565,751.96689 314.43947,756.89569 C 316.3196,760.97111 317.77357,764.88119 318.09576,766.61458 C 318.16649,766.83053 318.21091,766.94999 318.22076,767.1162 C 318.24862,767.31667 318.26295,767.56055 318.28326,767.80593 C 318.32389,768.2967 318.34576,768.8157 318.34576,769.15403 C 318.34576,769.764 318.40826,770.65011 318.40826,771.09781 C 318.40825,771.71051 318.47962,772.32174 318.47076,772.97888 C 318.47404,773.28542 318.47076,773.48101 318.47076,773.73131 C 318.48892,774.76758 316.87338,776.31048 314.43947,777.55617 C 311.95719,778.82663 309.77095,780.90473 308.87692,782.85453 C 308.06956,784.61531 306.36418,787.46676 305.09563,789.21883 C 303.3384,791.64582 302.64928,794.37738 302.12685,800.66204 C 301.38642,809.56904 299.23945,815.60777 293.53302,824.99061 C 287.33815,835.17653 286.70936,836.96523 286.09544,845.74513 C 285.7675,850.43528 284.99342,859.13847 284.37668,865.08885 C 281.61033,891.77824 285.67991,902.57724 299.40807,904.90494 C 303.37567,905.57767 303.98004,905.53621 314.00197,903.839 C 322.97133,902.32002 333.50215,899.10024 333.50216,897.88226 C 333.50216,897.36316 332.38323,896.66249 331.00213,896.3147 C 329.62103,895.96694 327.57259,894.41829 326.47084,892.86606 C 325.18545,891.05506 322.61172,889.41373 319.25202,888.32013 C 304.37505,883.47771 300.72333,874.99218 305.50188,856.2478 C 308.75773,843.47649 316.53091,831.71068 334.84592,811.82308 C 339.57107,806.69221 344.01634,801.47016 344.72102,800.19177 C 345.42569,798.91334 347.20548,795.64473 348.65856,792.94963 C 350.11163,790.25452 352.13664,787.28787 353.1586,786.36587 C 355.1783,784.54368 365.50945,780.19667 366.18998,780.8794 C 366.42027,781.11042 364.35429,782.11031 361.59619,783.10534 C 354.83203,785.54556 352.34249,787.86478 348.2523,795.64584 L 344.78352,802.26095 L 359.40866,803.48365 C 372.93955,804.61802 377.18402,805.28575 380.12762,805.45878 C 383.11712,805.63446 386.71363,805.17089 391.15898,805.23932 C 395.60433,805.30775 404.53999,808.2156 415.12796,813.51605 C 420.71397,816.31246 428.84476,819.58458 433.37814,820.97765 C 433.39824,820.97471 433.44878,820.99286 433.50314,821.009 C 433.69827,821.06825 433.85391,821.08267 434.0344,821.1344 C 434.54068,821.22586 435.37288,821.20685 436.22192,820.63278 C 437.06047,820.06583 437.235,819.78729 437.59693,819.06522 C 437.95887,818.34315 438.19507,818.01906 438.22194,817.09009 C 438.24881,816.16112 437.96441,814.54725 437.87819,813.79821 C 437.74878,812.86762 437.70271,812.09154 437.50318,811.1647 C 437.50317,811.15225 437.50294,811.14537 437.50318,811.13335 C 437.06327,809.15766 436.50252,805.26017 435.87817,799.47069 C 435.4988,795.953 435.69101,793.57573 436.34692,793.16909 C 436.43426,793.11493 436.49525,793.08472 436.56567,793.07503 C 437.05859,793.0073 437.15476,794.01993 436.81568,796.11611 C 436.49488,798.09932 436.78206,802.10358 437.47193,804.98851 C 437.98934,807.15224 438.25199,809.50741 438.37819,811.00795 C 438.37899,811.01748 438.37537,811.03008 438.37819,811.0393 C 438.49145,811.40932 438.5599,811.84657 438.62819,812.29335 C 438.70369,812.7873 438.77655,813.2649 438.84695,813.5474 C 439.0548,814.38148 439.3626,816.4648 439.3157,816.96469 C 439.27073,817.44388 439.21015,817.50966 438.9407,818.65765 C 438.61691,820.03711 437.98868,822.74587 437.56568,824.67709 C 437.14269,826.60833 436.04748,830.44573 435.09691,833.20463 C 432.19091,841.63903 431.88888,847.3897 434.25315,849.47593 C 435.36063,850.45317 438.6359,857.8091 441.53447,865.80993 C 444.35776,873.60298 446.73474,880.21037 447.09703,881.20339 C 447.10601,881.21368 447.12011,881.22368 447.12828,881.23475 C 447.15482,881.27072 447.17421,881.31661 447.19078,881.36015 L 452.15958,894.05741 C 452.18547,894.12234 452.19212,894.17973 452.19083,894.24551 C 452.19516,894.25394 452.1865,894.26841 452.19083,894.27687 C 453.01202,895.8818 453.76676,898.03399 454.31585,900.64117 C 455.11504,904.43592 455.13248,904.42109 460.44091,904.37197 C 470.0721,904.28283 470.19882,902.69501 461.97217,884.87149 C 455.19047,870.17854 451.48129,857.58024 450.78456,846.68567 C 450.11898,836.2782 451.69967,831.96819 459.1284,823.83061 C 461.81196,820.89097 464.79094,817.07633 465.75346,815.33442 C 466.71597,813.59254 467.50347,812.73595 467.50348,813.45335 C 467.50348,815.80289 465.35976,819.07746 460.44091,824.17547 C 457.77896,826.93438 454.61209,831.43832 453.40959,834.17652 C 451.22323,839.15505 451.22055,839.14377 460.53466,848.09648 C 469.84878,857.04914 469.86078,857.04281 470.31601,864.9321 C 470.78415,873.04511 471.57666,874.45711 473.59729,870.66938 C 475.33883,867.40475 477.69122,871.89976 476.90982,877.00233 C 475.38309,886.9719 483.6106,888.10199 486.50366,878.31908 C 487.60607,874.5913 487.42742,873.63817 484.22239,865.77858 C 482.31462,861.10023 480.21095,855.60821 479.5661,853.58294 C 478.9024,851.49848 476.94876,848.77724 475.0348,847.31269 C 473.17517,845.8897 471.32109,843.72648 470.94101,842.4846 C 470.56093,841.24272 467.9844,837.15515 465.22221,833.39274 C 459.19358,825.18105 458.98927,825.55033 473.00353,819.62954 C 493.61241,810.92264 503.17835,805.81448 509.16014,800.28582 C 512.37113,797.31808 516.88202,793.69167 519.16024,792.2599 C 521.43844,790.82814 525.71348,786.85694 528.66033,783.41885 C 544.61933,764.79946 545.83903,764.00836 557.78562,764.70215 C 565.28283,765.13757 566.56714,765.58405 578.97332,772.00699 C 589.62027,777.51913 592.68343,778.6814 594.91098,778.12049 C 599.19565,777.04163 602.16427,773.35608 603.41107,767.52377 C 604.53966,762.24435 604.50709,762.19465 599.84853,753.57246 C 592.17362,739.36746 588.41314,732.9672 581.6921,729.4947 C 577.51155,727.33478 573.33806,724.13719 571.28575,720.12068 C 564.83421,707.49459 551.36526,706.88042 541.84796,713.41151 C 534.12175,718.71353 515.8222,737.18209 511.50391,744.04168 C 502.29399,758.67166 494.49454,759.01761 479.00359,745.48384 C 431.64354,704.10753 409.96722,688.54068 391.15898,682.37377 C 363.1725,673.19753 352.1767,672.94153 321.78329,680.74351 C 261.29986,696.26963 234.04537,699.57577 197.50082,695.82346 C 166.89646,692.68105 134.76996,682.45641 119.71881,671.05597 C 116.75786,668.81321 114.20644,667.13748 114.03125,667.32517 z M 390.12772,806.36796 C 389.59402,806.35994 388.11253,806.41278 386.37768,806.52472 C 384.64282,806.63666 382.59695,806.75994 381.84639,806.99499 C 381.09581,807.23002 381.19327,807.46606 381.22138,807.65336 C 381.2495,807.84067 381.26593,808.03148 381.28388,808.24904 C 381.39436,809.5883 382.35424,812.38257 383.4089,814.45659 C 387.68855,822.8725 388.83304,829.3572 387.47144,837.343 C 385.49372,848.94225 386.4671,854.76522 392.37774,866.49966 C 396.85978,875.39794 397.50278,877.39685 397.50279,882.73961 C 397.50279,891.41948 399.6797,892.53868 421.34677,894.90389 C 430.2009,895.87041 431.93859,895.80189 433.34689,894.52768 C 434.2652,893.69679 437.6573,892.8525 441.00322,892.61525 C 444.0805,892.39709 447.48008,892.21261 448.15954,891.51796 C 448.83898,890.82328 448.46863,889.01481 448.06579,887.505 C 447.56747,885.63734 446.75619,883.79296 446.28452,883.11582 C 446.11735,882.87583 446.11167,882.90639 445.53451,882.33204 C 444.93528,881.73571 444.24615,881.56776 443.19074,880.88988 C 441.63764,879.89234 438.26261,878.79177 435.69066,878.44449 C 430.04057,877.68157 419.85801,871.48395 416.31547,866.65642 C 409.70251,857.6447 408.41122,848.24543 410.50292,824.33223 C 411.03932,818.19991 411.12328,812.92707 410.72167,812.60686 C 408.58242,810.90111 397.52463,807.21931 392.62774,806.58742 C 391.73054,806.47165 391.21744,806.38402 390.12772,806.36796 z "
       style="fill:green;fill-opacity:0.5"
       id="path2223" />
  </g>
</svg>
