<?xml version="1.0" encoding="UTF-8" standalone="no"?>
<!-- Generator: Adobe Illustrator 13.0.0, SVG Export Plug-In . SVG Version: 6.00 Build 14576)  -->
<svg
   xmlns:dc="http://purl.org/dc/elements/1.1/"
   xmlns:cc="http://creativecommons.org/ns#"
   xmlns:rdf="http://www.w3.org/1999/02/22-rdf-syntax-ns#"
   xmlns:svg="http://www.w3.org/2000/svg"
   xmlns="http://www.w3.org/2000/svg"
   xmlns:sodipodi="http://sodipodi.sourceforge.net/DTD/sodipodi-0.dtd"
   xmlns:inkscape="http://www.inkscape.org/namespaces/inkscape"
   version="1.1"
   id="Layer_1"
   x="0px"
   y="0px"
   width="800"
   height="800"
   viewBox="0 0 667.955 486.9"
   enable-background="new 0 0 667.955 486.9"
   xml:space="preserve"
   sodipodi:version="0.32"
   inkscape:version="0.46"
   sodipodi:docname="Sauropode_silhouette-done.svg"
   inkscape:output_extension="org.inkscape.output.svg.inkscape"><metadata
   id="metadata16"><rdf:RDF><cc:Work
       rdf:about=""><dc:format>image/svg+xml</dc:format><dc:type
         rdf:resource="http://purl.org/dc/dcmitype/StillImage" /></cc:Work></rdf:RDF></metadata><defs
   id="defs14"><inkscape:perspective
     sodipodi:type="inkscape:persp3d"
     inkscape:vp_x="0 : 243.45 : 1"
     inkscape:vp_y="0 : 1000 : 0"
     inkscape:vp_z="667.95502 : 243.45 : 1"
     inkscape:persp3d-origin="333.97751 : 162.3 : 1"
     id="perspective18" /></defs><sodipodi:namedview
   inkscape:window-height="742"
   inkscape:window-width="765"
   inkscape:pageshadow="2"
   inkscape:pageopacity="0.0"
   guidetolerance="10.0"
   gridtolerance="10.0"
   objecttolerance="10.0"
   borderopacity="1.0"
   bordercolor="red"
   pagecolor="red"
   id="base"
   showgrid="false"
   inkscape:zoom="0.81292899"
   inkscape:cx="333.97751"
   inkscape:cy="243.45"
   inkscape:window-x="40"
   inkscape:window-y="62"
   inkscape:current-layer="Layer_1" />
<g
   id="g3"
   transform="matrix(0.9650091,0,0,0.9650091,8.610844,10.886533)">
	<path
   clip-rule="evenodd"
   d="M 236.571,464.769 C 236.496,462.677 233.684,462.238 231.759,460.92 C 220.287,453.065 225.043,437.033 233.684,430.608 C 237.43,427.823 240.978,427.699 241.863,424.353 C 242.33,422.59 241.087,420.39 240.901,417.618 C 240.707,414.729 241.403,411.55 240.901,409.438 C 239.773,404.695 235.085,398.548 233.203,396.929 C 229.265,403.24 222.311,407.761 217.326,413.768 C 207.375,425.758 203.075,443.794 205.779,464.287 C 208.926,466.556 236.85,472.52 236.571,464.769 z"
   id="path5"
   style="fill:red;fill-rule:evenodd;fill-opacity:0.5" />
	<path
   clip-rule="evenodd"
   d="M 0.337,413.769 C 7.993,416.028 14.149,419.789 21.025,421.467 C 26.853,422.89 33.093,423.685 39.308,424.354 C 58.104,426.379 70.867,422.317 84.053,417.619 C 100.682,411.694 114.578,404.752 128.317,396.449 C 135.104,392.348 142.556,388.264 148.524,383.94 C 169.753,368.559 186.038,348.09 204.816,334.383 C 210.263,327.193 217.557,321.642 224.061,315.138 C 230.424,308.775 238.285,303.149 243.787,296.374 C 246.075,293.558 256.772,283.307 260.145,280.978 C 270.27,273.989 280.08,266.178 290.456,259.809 C 297.72,255.35 316.972,244.131 338.058,239.078 C 358.648,234.143 381.082,235.338 388.125,233.828 C 391.019,233.209 394.601,233.088 396.785,232.386 C 399.133,231.631 400.484,229.256 402.558,228.055 C 404.763,226.78 407.578,226.385 409.775,225.168 C 420.01,219.504 429.109,210.623 437.681,202.074 C 444.101,195.671 450.695,188.72 456.926,182.829 C 459.185,180.693 492.847,140.975 494.468,138.59 C 506.632,120.698 519.418,103.429 530.947,84.904 C 532.769,81.976 551.392,56.248 553.633,53.406 C 559.561,45.886 563.883,39.724 570.953,33.199 C 579.381,25.422 587.096,21.163 597.896,15.878 C 603.111,13.327 608.393,9.763 613.292,8.661 C 626.077,5.788 637.198,7.01 645.527,0.001 C 647.948,1.108 650.522,2.063 652.744,3.369 C 655.917,7.105 655.145,10.2 658.036,14.434 C 660.458,17.98 666.7,18.788 667.659,22.614 C 668.86,27.401 666.214,31.625 662.847,32.236 C 660.325,32.694 658.669,31.109 656.112,30.793 C 650.917,30.151 643.774,30.972 637.348,30.793 C 630.678,30.607 624.403,29.265 620.027,29.35 C 606.575,29.613 597.356,38.473 590.678,45.708 C 587.855,48.768 584.438,51.755 582.018,54.85 C 576.784,61.544 562.914,86.697 559.885,90.934 C 556.758,95.311 538.135,128.85 535.348,133.754 C 532.74,138.345 529.592,143.025 526.405,147.616 C 524.026,151.043 498.488,188.137 485.118,209.408 C 482.273,213.932 458.632,248.672 453.557,255.96 C 445.44,267.622 438.116,277.641 429.02,287.233 C 432.098,294.094 434.983,299.138 434.793,305.998 C 434.564,314.271 429.351,321.754 427.576,330.054 C 427.078,332.385 427.462,335.026 427.095,337.752 C 426.54,341.874 424.733,346.137 424.208,350.261 C 423.297,357.44 423.751,365.156 423.727,371.912 C 423.713,375.913 422.221,380.091 421.803,384.421 C 420.852,394.256 419.792,400.188 418.916,408.478 C 417.915,417.945 419.981,431.012 420.84,442.157 C 421.516,450.934 420.496,458.727 422.283,464.77 C 423.756,469.749 429.488,472.102 429.019,479.204 C 421.091,482.149 408.091,481.617 401.595,477.761 C 398.589,473.874 402.499,468.385 402.556,464.289 C 402.654,457.383 398.943,449.867 397.265,441.677 C 395.128,431.254 396.382,413.825 396.302,400.3 C 396.212,385.251 395.62,368.918 402.075,360.365 C 406.438,354.585 414.434,353.966 414.585,344.489 C 411.371,345.504 410.792,348.928 408.812,351.224 C 406.337,354.091 402.571,355.656 400.632,357.959 C 398.437,360.568 396.926,366.897 394.859,371.431 C 393.357,374.727 390.736,377.235 389.566,380.091 C 388.402,382.937 388.455,386.971 387.161,390.195 C 386.517,391.799 384.849,393.036 384.274,394.525 C 380.768,403.597 377.724,420.129 378.501,432.053 C 378.875,437.782 380.247,444.9 379.463,451.78 C 378.641,458.996 375.57,467.764 378.02,473.43 C 379.073,475.864 385.633,479.615 384.756,483.053 C 383.358,488.53 364.812,486.339 359.256,486.902 C 358.317,485.436 355.584,485.762 354.445,484.496 C 352.428,477.529 355.207,471.464 355.888,464.77 C 357.879,445.187 351.587,424.275 351.558,405.11 C 351.539,393.627 355.874,385.7 358.292,376.724 C 359.051,373.911 359.239,370.421 360.218,367.582 C 361.226,364.657 363.363,362.198 363.585,359.884 C 363.802,357.634 362.513,355.317 362.623,353.148 C 362.966,346.362 367.302,341.188 367.435,334.384 C 362.888,337.453 361.86,343.708 361.179,349.299 C 360.78,352.59 361.716,355.996 361.179,358.922 C 360.042,365.121 355.45,370.196 355.406,376.242 C 341.369,381.611 328.083,385.093 309.699,384.902 C 303.298,384.836 297.118,382.297 291.416,381.534 C 284.04,380.548 280.374,383.956 275.539,384.421 C 276.264,368.395 273.648,353.022 266.397,342.082 C 263.781,343.895 266.341,347.47 267.359,349.78 C 271.189,358.474 275.075,371.717 272.651,383.94 C 275.147,393.002 276.543,404.873 274.575,417.619 C 273.581,424.058 269.44,429.574 269.283,436.864 C 269.221,439.738 270.191,443.501 270.245,446.486 C 270.382,453.934 269.016,463.635 271.207,467.174 C 273.576,471.001 280.932,470.058 281.311,476.797 C 280.317,479.297 277.027,480.018 274.094,480.646 C 263.341,482.951 250.406,482.367 244.745,474.873 C 246.211,466.021 247.315,459.328 246.669,448.411 C 246.394,443.753 246.461,439.343 246.188,435.421 C 245.783,429.608 243.737,423.551 243.301,418.101 C 243.073,415.262 243.655,412.386 243.301,409.921 C 241.828,399.681 233.066,392.434 228.386,383.941 C 223.779,375.581 220.06,367.955 215.877,361.328 C 214.051,366.748 218.705,371.455 221.169,375.762 C 223.91,380.552 226.501,385.518 228.867,390.196 C 221.386,391.207 206.051,393.109 193.053,396.746 C 181.746,399.908 129.262,420.24 122.057,422.433 C 114.371,424.771 105.849,427.409 97.244,429.401 C 92.182,430.574 65.075,433.979 56.945,434.249 C 52.946,434.381 40.241,433.896 37.86,433.499 C 34.697,432.972 25.619,430.953 24.388,430.612 C 16.078,428.31 2.888,419.36 0.337,413.769 z"
   id="path7"
   style="fill:red;fill-rule:evenodd;fill-opacity:0.5" />
	<path
   clip-rule="evenodd"
   d="M 205.779,464.287 C 203.075,443.795 207.375,425.759 217.326,413.768 C 222.311,407.761 229.265,403.24 233.203,396.929 C 235.085,398.548 239.773,404.695 240.901,409.438 C 241.403,411.549 240.707,414.729 240.901,417.618 C 241.087,420.39 242.33,422.591 241.863,424.353 C 240.978,427.699 237.43,427.823 233.684,430.608 C 225.043,437.033 220.288,453.064 231.759,460.92 C 233.684,462.237 236.495,462.677 236.571,464.769 C 236.85,472.52 208.926,466.556 205.779,464.287 z"
   id="path9"
   style="fill:red;fill-rule:evenodd;fill-opacity:0.5" />
	<path
   clip-rule="evenodd"
   d="M 0.337,413.769 C -0.244,413.817 0.042,413.069 0.337,413.769 L 0.337,413.769 z"
   id="path11"
   style="fill:red;fill-rule:evenodd;fill-opacity:0.5" />
</g>
</svg>